<svg xmlns="http://www.w3.org/2000/svg" viewBox="0 0 1024 1024" role="img" aria-labelledby="title desc">
  <title id="title">Session Snapshots &amp; Bookmark Search icon</title>
  <desc id="desc">A polished Firefox add-on icon showing stacked session tabs, a pinned tab marker, timeline dots, and a bookmark search lens.</desc>
  <defs>
    <linearGradient id="bg" x1="128" y1="96" x2="896" y2="928" gradientUnits="userSpaceOnUse">
      <stop offset="0" stop-color="#7C5CFF"/>
      <stop offset="0.52" stop-color="#1E90FF"/>
      <stop offset="1" stop-color="#3DDC97"/>
    </linearGradient>
    <radialGradient id="glowTop" cx="22%" cy="18%" r="54%">
      <stop offset="0" stop-color="#C3A7FF" stop-opacity="0.55"/>
      <stop offset="1" stop-color="#C3A7FF" stop-opacity="0"/>
    </radialGradient>
    <radialGradient id="glowBottom" cx="82%" cy="78%" r="52%">
      <stop offset="0" stop-color="#3DDC97" stop-opacity="0.58"/>
      <stop offset="1" stop-color="#3DDC97" stop-opacity="0"/>
    </radialGradient>
    <linearGradient id="card" x1="250" y1="210" x2="760" y2="760" gradientUnits="userSpaceOnUse">
      <stop offset="0" stop-color="#FFFFFF"/>
      <stop offset="1" stop-color="#EAF1FF"/>
    </linearGradient>
    <filter id="tileShadow" x="-18%" y="-18%" width="136%" height="142%" color-interpolation-filters="sRGB">
      <feDropShadow dx="0" dy="30" stdDeviation="36" flood-color="#091228" flood-opacity="0.28"/>
    </filter>
    <filter id="cardShadow" x="-20%" y="-20%" width="140%" height="150%" color-interpolation-filters="sRGB">
      <feDropShadow dx="14" dy="22" stdDeviation="18" flood-color="#091228" flood-opacity="0.22"/>
    </filter>
  </defs>

  <rect x="72" y="72" width="880" height="880" rx="206" fill="url(#bg)" filter="url(#tileShadow)"/>
  <rect x="72" y="72" width="880" height="880" rx="206" fill="url(#glowTop)"/>
  <rect x="72" y="72" width="880" height="880" rx="206" fill="url(#glowBottom)"/>
  <path d="M196 172c150 122 282 220 632 336" fill="none" stroke="#FFFFFF" stroke-opacity="0.10" stroke-width="82" stroke-linecap="round"/>
  <rect x="78" y="78" width="868" height="868" rx="200" fill="none" stroke="#FFFFFF" stroke-opacity="0.34" stroke-width="12"/>

  <g filter="url(#cardShadow)">
    <g transform="translate(266 220)">
      <rect width="520" height="296" rx="58" fill="url(#card)" opacity="0.76"/>
      <path d="M58 0h404c32 0 58 26 58 58v8H0v-8C0 26 26 0 58 0Z" fill="#8B6FFF" opacity="0.78"/>
      <path d="M92 128h318M92 182h224" stroke="#425A96" stroke-opacity="0.34" stroke-width="18" stroke-linecap="round"/>
    </g>
    <g transform="translate(184 342)">
      <rect width="532" height="302" rx="60" fill="url(#card)" opacity="0.92"/>
      <path d="M60 0h412c33 0 60 27 60 60v8H0v-8C0 27 27 0 60 0Z" fill="#4FA1FF" opacity="0.78"/>
      <path d="M94 130h326M94 186h236" stroke="#425A96" stroke-opacity="0.35" stroke-width="18" stroke-linecap="round"/>
    </g>
    <g transform="translate(318 462)">
      <rect width="530" height="312" rx="60" fill="url(#card)" opacity="0.86"/>
      <path d="M60 0h410c33 0 60 27 60 60v8H0v-8C0 27 27 0 60 0Z" fill="#3DDC97" opacity="0.78"/>
      <path d="M94 134h320M94 194h232" stroke="#425A96" stroke-opacity="0.32" stroke-width="18" stroke-linecap="round"/>
    </g>
  </g>

  <g aria-label="Pinned tab marker">
    <circle cx="350" cy="512" r="58" fill="#6B49FF"/>
    <path d="M350 565v84M322 638h56" stroke="#6B49FF" stroke-width="24" stroke-linecap="round"/>
    <circle cx="350" cy="512" r="20" fill="#FFFFFF" opacity="0.52"/>
  </g>

  <g aria-label="Snapshot timeline" fill="none" stroke-linecap="round" stroke-linejoin="round">
    <path d="M240 804l112-46 122 74" stroke="#D6FFF1" stroke-width="14" opacity="0.68"/>
    <circle cx="240" cy="804" r="24" fill="#3DDC97" stroke="#FFFFFF" stroke-opacity="0.55" stroke-width="8"/>
    <circle cx="352" cy="758" r="24" fill="#FFFFFF" opacity="0.95"/>
    <circle cx="474" cy="832" r="24" fill="#3DDC97" stroke="#FFFFFF" stroke-opacity="0.55" stroke-width="8"/>
  </g>

  <g aria-label="Bookmark search lens">
    <circle cx="672" cy="630" r="122" fill="none" stroke="#0C1630" stroke-width="54"/>
    <path d="M762 720l132 132" stroke="#0C1630" stroke-width="64" stroke-linecap="round"/>
    <path d="M612 560c28-30 78-42 122-24" fill="none" stroke="#FFFFFF" stroke-opacity="0.28" stroke-width="22" stroke-linecap="round"/>
  </g>
</svg>
